<svg xmlns="http://www.w3.org/2000/svg" viewBox="0 0 200 50" fill="none">
  <path d="M10 35 L20 15 L30 35 M15 28 H25" stroke="#0ABAB5" stroke-width="2.5" stroke-linecap="round" stroke-linejoin="round"/>
  <path d="M35 25 C35 20 40 15 45 15 L55 15 C55 15 50 25 45 25 L55 25 C55 25 50 35 45 35 L35 35 L35 25Z" stroke="#0ABAB5" stroke-width="2" fill="none"/>
  <path d="M60 35 L60 15 M60 25 L72 15 M66 25 L74 35" stroke="#0ABAB5" stroke-width="2.5" stroke-linecap="round"/>
  <text x="82" y="22" font-family="Georgia, serif" font-size="16" font-weight="bold" fill="#0ABAB5">EVA</text>
  <text x="82" y="38" font-family="Georgia, serif" font-size="10" font-weight="normal" fill="#0ABAB5" letter-spacing="3">YACHT</text>
  <path d="M140 30 Q150 10 160 30" stroke="#0ABAB5" stroke-width="1.5" fill="none"/>
  <path d="M142 32 L158 32" stroke="#0ABAB5" stroke-width="2" stroke-linecap="round"/>
  <path d="M148 32 L148 18" stroke="#0ABAB5" stroke-width="1.5"/>
  <path d="M148 18 L158 24 L148 26" fill="#0ABAB5" opacity="0.3"/>
</svg>
